solid MESH-MESH-MESH-MESH-MESH-MESH-MESH-MESH-MESH-MESH-MESH-MESH-MESH-MESH-MESH-MESH
facet normal -1 0 0
outer loop
vertex 0 20 20
vertex 0 20 0
vertex 0 0 20
endloop
endfacet
facet normal -1 0 0
outer loop
vertex 0 20 0
vertex 0 0 0
vertex 0 0 20
endloop
endfacet
facet normal 0 -1 4.6539183039315715e-18
outer loop
vertex 5.04034423828125 1.713039432527097e-17 3.680854082107544
vertex 0 0 0
vertex 6.652801513671875 1.713039432527097e-17 3.680854082107544
endloop
endfacet
facet normal 0 -1 4.653918717521878e-18
outer loop
vertex 6.652801513671875 1.713039432527097e-17 3.680854082107544
vertex 0 0 0
vertex 12.53521728515625 1.713039432527097e-17 3.680854082107544
endloop
endfacet
facet normal 0 -1 -4.318753818711823e-18
outer loop
vertex 6.652801513671875 1.713039432527097e-17 3.680854082107544
vertex 12.53521728515625 1.713039432527097e-17 3.680854082107544
vertex 9.553085327148438 -4.0115480381963664e-18 8.576233863830566
endloop
endfacet
facet normal -2.16042916581314e-17 -1 -3.915965002310149e-17
outer loop
vertex 14.316741943359375 -2.1358782797964437e-17 3.6808693408966064
vertex 12.53521728515625 1.713039432527097e-17 3.680854082107544
vertex 20 0 0
endloop
endfacet
facet normal 0 -1 4.6539183039315715e-18
outer loop
vertex 12.53521728515625 1.713039432527097e-17 3.680854082107544
vertex 0 0 0
vertex 20 0 0
endloop
endfacet
facet normal 1.1898615917215979e-17 -1 0
outer loop
vertex 0 0 20
vertex 0 0 0
vertex 5.257625579833984 6.25584653524136e-17 15.985729217529297
endloop
endfacet
facet normal -7.216738081399503e-18 -1 3.819310023068124e-18
outer loop
vertex 5.04034423828125 1.713039432527097e-17 3.680854082107544
vertex 8.585594177246094 1.5937771935536915e-17 10.067483901977539
vertex 5.257625579833984 6.25584653524136e-17 15.985729217529297
endloop
endfacet
facet normal 7.11736908120866e-19 -1 3.679307636441993e-18
outer loop
vertex 0 0 0
vertex 5.04034423828125 1.713039432527097e-17 3.680854082107544
vertex 5.257625579833984 6.25584653524136e-17 15.985729217529297
endloop
endfacet
facet normal -8.10900506957902e-17 -1 -1.2179038085805336e-16
outer loop
vertex 0 0 20
vertex 5.257625579833984 6.25584653524136e-17 15.985729217529297
vertex 6.9049072265625 -7.177418381854039e-17 15.991924285888672
endloop
endfacet
facet normal 0 -1 -1.4066297306331616e-17
outer loop
vertex 6.9049072265625 -7.177418381854039e-17 15.991924285888672
vertex 9.535186767578125 -6.288372600415926e-18 11.33641242980957
vertex 12.473899841308594 -7.177418381854039e-17 15.991924285888672
endloop
endfacet
facet normal 0 -1 1.790739154442163e-17
outer loop
vertex 0 0 20
vertex 6.9049072265625 -7.177418381854039e-17 15.991924285888672
vertex 12.473899841308594 -7.177418381854039e-17 15.991924285888672
endloop
endfacet
facet normal 1.865792394705427e-17 -1 1.0873594381655581e-17
outer loop
vertex 10.3074951171875 -2.721347452938616e-17 10.021875381469727
vertex 14.316741943359375 -2.1358782797964437e-17 3.6808693408966064
vertex 14.100837707519531 1.0809495659680479e-16 15.956668853759766
endloop
endfacet
facet normal 1.0710147628518165e-17 -1 1.0733809957120857e-17
outer loop
vertex 14.316741943359375 -2.1358782797964437e-17 3.6808693408966064
vertex 20 0 0
vertex 14.100837707519531 1.0809495659680479e-16 15.956668853759766
endloop
endfacet
facet normal 1.0660705058072401e-16 -1 -1.8227229200071384e-16
outer loop
vertex 12.473899841308594 -7.177418381854039e-17 15.991924285888672
vertex 14.100837707519531 1.0809495659680479e-16 15.956668853759766
vertex 20 0 20
endloop
endfacet
facet normal -1.8323781029891024e-17 -1 0
outer loop
vertex 14.100837707519531 1.0809495659680479e-16 15.956668853759766
vertex 20 0 0
vertex 20 0 20
endloop
endfacet
facet normal 0 -1 1.790739154442163e-17
outer loop
vertex 0 0 20
vertex 12.473899841308594 -7.177418381854039e-17 15.991924285888672
vertex 20 0 20
endloop
endfacet
facet normal 0 0 1
outer loop
vertex 6.322190761566162 4.42724084854126 20
vertex 0 0 20
vertex 6.322190761566162 4.0070695877075195 20
endloop
endfacet
facet normal 0 0 1
outer loop
vertex 20 0 20
vertex 14.112187385559082 4.0070695877075195 20
vertex 6.322190761566162 4.0070695877075195 20
endloop
endfacet
facet normal 0 0 1
outer loop
vertex 20 0 20
vertex 14.112187385559082 5.519688129425049 20
vertex 14.112187385559082 4.0070695877075195 20
endloop
endfacet
facet normal 0 0 1
outer loop
vertex 20 0 20
vertex 6.322190761566162 4.0070695877075195 20
vertex 0 0 20
endloop
endfacet
facet normal 0 0 1
outer loop
vertex 6.406224250793457 14.805497169494629 20
vertex 0 20 20
vertex 0 0 20
endloop
endfacet
facet normal 0 0 1
outer loop
vertex 6.406224250793457 14.805497169494629 20
vertex 0 0 20
vertex 6.322190761566162 4.42724084854126 20
endloop
endfacet
facet normal 0 0 1
outer loop
vertex 6.406224250793457 16.3181209564209 20
vertex 0 20 20
vertex 6.406224250793457 14.805497169494629 20
endloop
endfacet
facet normal 0 0 1
outer loop
vertex 20 20 20
vertex 13.927310943603516 16.3181209564209 20
vertex 13.927310943603516 15.897944450378418 20
endloop
endfacet
facet normal 0 0 1
outer loop
vertex 20 20 20
vertex 14.112187385559082 5.519688129425049 20
vertex 20 0 20
endloop
endfacet
facet normal 0 0 1
outer loop
vertex 20 20 20
vertex 13.927310943603516 15.897944450378418 20
vertex 14.112187385559082 5.519688129425049 20
endloop
endfacet
facet normal 0 0 1
outer loop
vertex 20 20 20
vertex 0 20 20
vertex 6.406224250793457 16.3181209564209 20
endloop
endfacet
facet normal 0 0 1
outer loop
vertex 20 20 20
vertex 6.406224250793457 16.3181209564209 20
vertex 13.927310943603516 16.3181209564209 20
endloop
endfacet
facet normal 0 0 1
outer loop
vertex 13.927310943603516 15.897944450378418 20
vertex 8.616332054138184 5.519688129425049 20
vertex 14.112187385559082 5.519688129425049 20
endloop
endfacet
facet normal 0 0 1
outer loop
vertex 6.322190761566162 4.42724084854126 20
vertex 11.616364479064941 14.805497169494629 20
vertex 6.406224250793457 14.805497169494629 20
endloop
endfacet
facet normal 0 1 0
outer loop
vertex 20 20 20
vertex 20 20 0
vertex 0 20 0
endloop
endfacet
facet normal 0 1 0
outer loop
vertex 20 20 20
vertex 0 20 0
vertex 0 20 20
endloop
endfacet
facet normal 0 0 -1
outer loop
vertex 0 0 0
vertex 0 20 0
vertex 20 20 0
endloop
endfacet
facet normal 0 0 -1
outer loop
vertex 20 0 0
vertex 0 0 0
vertex 20 20 0
endloop
endfacet
facet normal 1 0 0
outer loop
vertex 20 10.450918197631836 9.229809761047363
vertex 20 10.510589599609375 3.7174646854400635
vertex 20 20 0
endloop
endfacet
facet normal 1 0 0
outer loop
vertex 20 0 0
vertex 20 10.510589599609375 3.7174646854400635
vertex 20 8.829998016357422 3.699273109436035
endloop
endfacet
facet normal 1 0 0
outer loop
vertex 20 0 0
vertex 20 20 0
vertex 20 10.510589599609375 3.7174646854400635
endloop
endfacet
facet normal 1 0 0
outer loop
vertex 20 8.770326614379883 9.211618423461914
vertex 20 0 0
vertex 20 8.829998016357422 3.699273109436035
endloop
endfacet
facet normal 1 0 0
outer loop
vertex 20 14.326719284057617 16.070558547973633
vertex 20 20 0
vertex 20 20 20
endloop
endfacet
facet normal 1 0 0
outer loop
vertex 20 14.326719284057617 16.070558547973633
vertex 20 10.450918197631836 9.229809761047363
vertex 20 20 0
endloop
endfacet
facet normal 1 0 0
outer loop
vertex 20 12.595709800720215 16.051820755004883
vertex 20 14.326719284057617 16.070558547973633
vertex 20 20 20
endloop
endfacet
facet normal 1 0 0
outer loop
vertex 20 6.461552619934082 15.98542308807373
vertex 20 9.586849212646484 10.640724182128906
vertex 20 12.595709800720215 16.051820755004883
endloop
endfacet
facet normal 1 0 0
outer loop
vertex 20 4.730542182922363 15.96668529510498
vertex 20 0 0
vertex 20 8.770326614379883 9.211618423461914
endloop
endfacet
facet normal 1 0 0
outer loop
vertex 20 0 20
vertex 20 4.730542182922363 15.96668529510498
vertex 20 6.461552619934082 15.98542308807373
endloop
endfacet
facet normal 1 0 0
outer loop
vertex 20 0 20
vertex 20 6.461552619934082 15.98542308807373
vertex 20 12.595709800720215 16.051820755004883
endloop
endfacet
facet normal 1 0 0
outer loop
vertex 20 0 20
vertex 20 12.595709800720215 16.051820755004883
vertex 20 20 20
endloop
endfacet
facet normal 1 0 0
outer loop
vertex 20 0 20
vertex 20 0 0
vertex 20 4.730542182922363 15.96668529510498
endloop
endfacet
facet normal -0.8425886631011963 0.0004483616794459522 0.5385574698448181
outer loop
vertex 14.100837707519531 1.0809495659680479e-16 15.956668853759766
vertex 14.100837707519531 1.9015675783157349 15.955085754394531
vertex 10.3074951171875 -2.721347452938616e-17 10.021875381469727
endloop
endfacet
facet normal -0.8425886631011963 0.0004484464298002422 0.5385574698448181
outer loop
vertex 10.3074951171875 -2.721347452938616e-17 10.021875381469727
vertex 14.100837707519531 1.9015675783157349 15.955085754394531
vertex 10.3074951171875 1.8966268301010132 10.020296096801758
endloop
endfacet
facet normal -0.8452239036560059 -0.000444994744611904 -0.5344122052192688
outer loop
vertex 10.3074951171875 -2.721347452938616e-17 10.021875381469727
vertex 10.3074951171875 1.8966268301010132 10.020296096801758
vertex 14.316741943359375 -2.1358782797964437e-17 3.6808693408966064
endloop
endfacet
facet normal -0.8452238440513611 -0.0004448895051609725 -0.5344122052192688
outer loop
vertex 14.316741943359375 -2.1358782797964437e-17 3.6808693408966064
vertex 10.3074951171875 1.8966268301010132 10.020296096801758
vertex 14.316741943359375 1.8913477659225464 3.6792948246002197
endloop
endfacet
facet normal -0.000008565013558836654 0.0008324834052473307 0.9999996423721313
outer loop
vertex 12.53521728515625 1.713039432527097e-17 3.680854082107544
vertex 14.316741943359375 -2.1358782797964437e-17 3.6808693408966064
vertex 14.316741943359375 1.8913477659225464 3.6792948246002197
endloop
endfacet
facet normal -0.000008565013558836654 0.0008324834052473307 0.9999996423721313
outer loop
vertex 12.53521728515625 1.713039432527097e-17 3.680854082107544
vertex 14.316741943359375 1.8913477659225464 3.6792948246002197
vertex 12.53521728515625 1.8913477659225464 3.6792795658111572
endloop
endfacet
facet normal 0.8540174961090088 0.0004329488438088447 0.5202441811561584
outer loop
vertex 9.553085327148438 -4.0115480381963664e-18 8.576233863830566
vertex 12.53521728515625 1.713039432527097e-17 3.680854082107544
vertex 9.553085327148438 1.8954232931137085 8.57465648651123
endloop
endfacet
facet normal 0.8540174961090088 0.00043309477041475475 0.5202441215515137
outer loop
vertex 12.53521728515625 1.713039432527097e-17 3.680854082107544
vertex 12.53521728515625 1.8913477659225464 3.6792795658111572
vertex 9.553085327148438 1.8954232931137085 8.57465648651123
endloop
endfacet
facet normal -0.8603440523147583 0.00042418530210852623 0.5097135901451111
outer loop
vertex 9.553085327148438 -4.0115480381963664e-18 8.576233863830566
vertex 9.553085327148438 1.8954232931137085 8.57465648651123
vertex 6.652801513671875 1.713039432527097e-17 3.680854082107544
endloop
endfacet
facet normal -0.8603440523147583 0.0004243282601237297 0.5097135901451111
outer loop
vertex 6.652801513671875 1.713039432527097e-17 3.680854082107544
vertex 9.553085327148438 1.8954232931137085 8.57465648651123
vertex 6.652801513671875 1.8913477659225464 3.6792795658111572
endloop
endfacet
facet normal 0 0.0008324834634549916 0.9999996423721313
outer loop
vertex 5.04034423828125 1.713039432527097e-17 3.680854082107544
vertex 6.652801513671875 1.713039432527097e-17 3.680854082107544
vertex 5.04034423828125 1.8913477659225464 3.6792795658111572
endloop
endfacet
facet normal 0 0.0008324834634549916 0.9999996423721313
outer loop
vertex 6.652801513671875 1.713039432527097e-17 3.680854082107544
vertex 6.652801513671875 1.8913477659225464 3.6792795658111572
vertex 5.04034423828125 1.8913477659225464 3.6792795658111572
endloop
endfacet
facet normal 0.874324381351471 -0.00040412673843093216 -0.4853418171405792
outer loop
vertex 8.585594177246094 1.5937771935536915e-17 10.067483901977539
vertex 5.04034423828125 1.713039432527097e-17 3.680854082107544
vertex 8.585594177246094 1.8966647386550903 10.06590461730957
endloop
endfacet
facet normal 0.874324381351471 -0.00040403916500508785 -0.4853418171405792
outer loop
vertex 5.04034423828125 1.713039432527097e-17 3.680854082107544
vertex 5.04034423828125 1.8913477659225464 3.6792795658111572
vertex 8.585594177246094 1.8966647386550903 10.06590461730957
endloop
endfacet
facet normal 0.8716411590576172 0.0004080513899680227 0.4901443421840668
outer loop
vertex 5.257625579833984 6.25584653524136e-17 15.985729217529297
vertex 8.585594177246094 1.5937771935536915e-17 10.067483901977539
vertex 5.257625579833984 1.9015917778015137 15.984146118164062
endloop
endfacet
facet normal 0.871641218662262 0.0004081256047356874 0.4901443421840668
outer loop
vertex 8.585594177246094 1.5937771935536915e-17 10.067483901977539
vertex 8.585594177246094 1.8966647386550903 10.06590461730957
vertex 5.257625579833984 1.9015917778015137 15.984146118164062
endloop
endfacet
facet normal 0.003760754829272628 -0.0008325043017975986 -0.9999926090240479
outer loop
vertex 6.9049072265625 -7.177418381854039e-17 15.991924285888672
vertex 5.257625579833984 6.25584653524136e-17 15.985729217529297
vertex 6.9049072265625 1.901597023010254 15.990341186523438
endloop
endfacet
facet normal 0.003760757390409708 -0.0008325065718963742 -0.9999926090240479
outer loop
vertex 5.257625579833984 6.25584653524136e-17 15.985729217529297
vertex 5.257625579833984 1.9015917778015137 15.984146118164062
vertex 6.9049072265625 1.901597023010254 15.990341186523438
endloop
endfacet
facet normal -0.870650589466095 -0.0004095133626833558 -0.49190178513526917
outer loop
vertex 6.9049072265625 -7.177418381854039e-17 15.991924285888672
vertex 6.9049072265625 1.901597023010254 15.990341186523438
vertex 9.535186767578125 -6.288372600415926e-18 11.33641242980957
endloop
endfacet
facet normal -0.870650589466095 -0.00040936097502708435 -0.49190178513526917
outer loop
vertex 9.535186767578125 -6.288372600415926e-18 11.33641242980957
vertex 6.9049072265625 1.901597023010254 15.990341186523438
vertex 9.535186767578125 1.8977211713790894 11.334833145141602
endloop
endfacet
facet normal 0.8456208109855652 -0.0004443806246854365 -0.5337838530540466
outer loop
vertex 12.473899841308594 -7.177418381854039e-17 15.991924285888672
vertex 9.535186767578125 -6.288372600415926e-18 11.33641242980957
vertex 12.473899841308594 1.901597023010254 15.990341186523438
endloop
endfacet
facet normal 0.8456208109855652 -0.0004442152567207813 -0.5337838530540466
outer loop
vertex 9.535186767578125 -6.288372600415926e-18 11.33641242980957
vertex 9.535186767578125 1.8977211713790894 11.334833145141602
vertex 12.473899841308594 1.901597023010254 15.990341186523438
endloop
endfacet
facet normal -0.02166471630334854 -0.0008323147194460034 -0.9997649192810059
outer loop
vertex 14.100837707519531 1.0809495659680479e-16 15.956668853759766
vertex 12.473899841308594 -7.177418381854039e-17 15.991924285888672
vertex 12.473899841308594 1.901597023010254 15.990341186523438
endloop
endfacet
facet normal -0.021664729341864586 -0.0008323275833390653 -0.9997649192810059
outer loop
vertex 14.100837707519531 1.0809495659680479e-16 15.956668853759766
vertex 12.473899841308594 1.901597023010254 15.990341186523438
vertex 14.100837707519531 1.9015675783157349 15.955085754394531
endloop
endfacet
facet normal -0.8902073502540588 0.45555558800697327 0
outer loop
vertex 13.927310943603516 15.897944450378418 20
vertex 13.927310943603516 15.897944450378418 18
vertex 8.616332054138184 5.519688129425049 20
endloop
endfacet
facet normal -0.8902073502540588 0.45555558800697327 0
outer loop
vertex 8.616332054138184 5.519688129425049 20
vertex 13.927310943603516 15.897944450378418 18
vertex 8.616332054138184 5.519688129425049 18
endloop
endfacet
facet normal -1 0 0
outer loop
vertex 13.927310943603516 15.897944450378418 20
vertex 13.927310943603516 16.3181209564209 20
vertex 13.927310943603516 16.3181209564209 18
endloop
endfacet
facet normal -1 0 0
outer loop
vertex 13.927310943603516 15.897944450378418 20
vertex 13.927310943603516 16.3181209564209 18
vertex 13.927310943603516 15.897944450378418 18
endloop
endfacet
facet normal 0 -1 0
outer loop
vertex 6.406224250793457 16.3181209564209 20
vertex 6.406224250793457 16.3181209564209 18
vertex 13.927310943603516 16.3181209564209 20
endloop
endfacet
facet normal 0 -1 0
outer loop
vertex 13.927310943603516 16.3181209564209 20
vertex 6.406224250793457 16.3181209564209 18
vertex 13.927310943603516 16.3181209564209 18
endloop
endfacet
facet normal 1 0 0
outer loop
vertex 6.406224250793457 14.805497169494629 20
vertex 6.406224250793457 14.805497169494629 18
vertex 6.406224250793457 16.3181209564209 18
endloop
endfacet
facet normal 1 0 0
outer loop
vertex 6.406224250793457 16.3181209564209 20
vertex 6.406224250793457 14.805497169494629 20
vertex 6.406224250793457 16.3181209564209 18
endloop
endfacet
facet normal 0 1 0
outer loop
vertex 11.616364479064941 14.805497169494629 20
vertex 11.616364479064941 14.805497169494629 18
vertex 6.406224250793457 14.805497169494629 18
endloop
endfacet
facet normal 0 1 0
outer loop
vertex 6.406224250793457 14.805497169494629 20
vertex 11.616364479064941 14.805497169494629 20
vertex 6.406224250793457 14.805497169494629 18
endloop
endfacet
facet normal 0.8907915949821472 -0.4544121325016022 0
outer loop
vertex 6.322190761566162 4.42724084854126 20
vertex 6.322190761566162 4.42724084854126 18
vertex 11.616364479064941 14.805497169494629 20
endloop
endfacet
facet normal 0.8907915949821472 -0.4544121325016022 0
outer loop
vertex 11.616364479064941 14.805497169494629 20
vertex 6.322190761566162 4.42724084854126 18
vertex 11.616364479064941 14.805497169494629 18
endloop
endfacet
facet normal 1 0 0
outer loop
vertex 6.322190761566162 4.42724084854126 20
vertex 6.322190761566162 4.0070695877075195 20
vertex 6.322190761566162 4.0070695877075195 18
endloop
endfacet
facet normal 1 0 0
outer loop
vertex 6.322190761566162 4.42724084854126 20
vertex 6.322190761566162 4.0070695877075195 18
vertex 6.322190761566162 4.42724084854126 18
endloop
endfacet
facet normal 0 1 0
outer loop
vertex 14.112187385559082 4.0070695877075195 20
vertex 14.112187385559082 4.0070695877075195 18
vertex 6.322190761566162 4.0070695877075195 18
endloop
endfacet
facet normal 0 1 0
outer loop
vertex 6.322190761566162 4.0070695877075195 20
vertex 14.112187385559082 4.0070695877075195 20
vertex 6.322190761566162 4.0070695877075195 18
endloop
endfacet
facet normal -1 0 0
outer loop
vertex 14.112187385559082 5.519688129425049 20
vertex 14.112187385559082 5.519688129425049 18
vertex 14.112187385559082 4.0070695877075195 18
endloop
endfacet
facet normal -1 0 0
outer loop
vertex 14.112187385559082 4.0070695877075195 20
vertex 14.112187385559082 5.519688129425049 20
vertex 14.112187385559082 4.0070695877075195 18
endloop
endfacet
facet normal 0 -1 0
outer loop
vertex 8.616332054138184 5.519688129425049 20
vertex 8.616332054138184 5.519688129425049 18
vertex 14.112187385559082 5.519688129425049 20
endloop
endfacet
facet normal 0 -1 0
outer loop
vertex 14.112187385559082 5.519688129425049 20
vertex 8.616332054138184 5.519688129425049 18
vertex 14.112187385559082 5.519688129425049 18
endloop
endfacet
facet normal 0.0011451576137915254 -0.870055615901947 0.49295225739479065
outer loop
vertex 20 10.450918197631836 9.229809761047363
vertex 20 14.326719284057617 16.070558547973633
vertex 18.062313079833984 10.450057983398438 9.232792854309082
endloop
endfacet
facet normal 0.001144826179370284 -0.8700555562973022 0.4929523169994354
outer loop
vertex 20 14.326719284057617 16.070558547973633
vertex 18.071125030517578 14.3258638381958 16.073528289794922
vertex 18.062313079833984 10.450057983398438 9.232792854309082
endloop
endfacet
facet normal -0.001544332248158753 0.010824130848050117 -0.9999402165412903
outer loop
vertex 20 14.326719284057617 16.070558547973633
vertex 20 12.595709800720215 16.051820755004883
vertex 18.071125030517578 14.3258638381958 16.073528289794922
endloop
endfacet
facet normal -0.0015439344570040703 0.01082457322627306 -0.9999402165412903
outer loop
vertex 20 12.595709800720215 16.051820755004883
vertex 18.071863174438477 12.594854354858398 16.05478858947754
vertex 18.071125030517578 14.3258638381958 16.073528289794922
endloop
endfacet
facet normal -0.0011355966562405229 0.8739718198776245 -0.48597532510757446
outer loop
vertex 20 9.586849212646484 10.640724182128906
vertex 18.064868927001953 9.585990905761719 10.643702507019043
vertex 20 12.595709800720215 16.051820755004883
endloop
endfacet
facet normal -0.0011357750045135617 0.8739718198776245 -0.4859752655029297
outer loop
vertex 20 12.595709800720215 16.051820755004883
vertex 18.064868927001953 9.585990905761719 10.643702507019043
vertex 18.071863174438477 12.594854354858398 16.05478858947754
endloop
endfacet
facet normal -0.0003940153692383319 -0.8632472157478333 -0.504781186580658
outer loop
vertex 20 9.586849212646484 10.640724182128906
vertex 20 6.461552619934082 15.98542308807373
vertex 18.064868927001953 9.585990905761719 10.643702507019043
endloop
endfacet
facet normal -0.0003941562899854034 -0.8632472157478333 -0.504781186580658
outer loop
vertex 20 6.461552619934082 15.98542308807373
vertex 18.074481964111328 6.46069860458374 15.988387107849121
vertex 18.064868927001953 9.585990905761719 10.643702507019043
endloop
endfacet
facet normal -0.0015440451679751277 0.01082412526011467 -0.9999402165412903
outer loop
vertex 20 6.461552619934082 15.98542308807373
vertex 20 4.730542182922363 15.96668529510498
vertex 18.074481964111328 6.46069860458374 15.988387107849121
endloop
endfacet
facet normal -0.0015441389987245202 0.010824020020663738 -0.9999402165412903
outer loop
vertex 20 4.730542182922363 15.96668529510498
vertex 18.075220108032227 4.72968864440918 15.969648361206055
vertex 18.074481964111328 6.46069860458374 15.988387107849121
endloop
endfacet
facet normal 0.0004094829491805285 0.8582349419593811 0.513256847858429
outer loop
vertex 20 8.770326614379883 9.211618423461914
vertex 18.063030242919922 8.7694673538208 9.214600563049316
vertex 20 4.730542182922363 15.96668529510498
endloop
endfacet
facet normal 0.0004095415351912379 0.8582349419593811 0.513256847858429
outer loop
vertex 20 4.730542182922363 15.96668529510498
vertex 18.063030242919922 8.7694673538208 9.214600563049316
vertex 18.075220108032227 4.72968864440918 15.969648361206055
endloop
endfacet
facet normal -0.00042694059084169567 0.999941349029541 0.010824413038790226
outer loop
vertex 20 8.829998016357422 3.699273109436035
vertex 18.05451774597168 8.829134941101074 3.702268123626709
vertex 20 8.770326614379883 9.211618423461914
endloop
endfacet
facet normal -0.000426919519668445 0.999941349029541 0.010824404656887054
outer loop
vertex 20 8.770326614379883 9.211618423461914
vertex 18.05451774597168 8.829134941101074 3.702268123626709
vertex 18.063030242919922 8.7694673538208 9.214600563049316
endloop
endfacet
facet normal 0.0015439796261489391 -0.010823861695826054 0.9999402165412903
outer loop
vertex 20 8.829998016357422 3.699273109436035
vertex 20 10.510589599609375 3.7174646854400635
vertex 18.053800582885742 10.509726524353027 3.7204604148864746
endloop
endfacet
facet normal 0.0015441810246556997 -0.010823626071214676 0.9999402165412903
outer loop
vertex 20 8.829998016357422 3.699273109436035
vertex 18.053800582885742 10.509726524353027 3.7204604148864746
vertex 18.05451774597168 8.829134941101074 3.702268123626709
endloop
endfacet
facet normal 0.00042677923920564353 -0.999941349029541 -0.010824412107467651
outer loop
vertex 20 10.510589599609375 3.7174646854400635
vertex 20 10.450918197631836 9.229809761047363
vertex 18.053800582885742 10.509726524353027 3.7204604148864746
endloop
endfacet
facet normal 0.00042724807281047106 -0.999941349029541 -0.010824578814208508
outer loop
vertex 20 10.450918197631836 9.229809761047363
vertex 18.062313079833984 10.450057983398438 9.232792854309082
vertex 18.053800582885742 10.509726524353027 3.7204604148864746
endloop
endfacet
facet normal -7.13057923817928e-9 -0.9999996423721313 0.0008325236267410219
outer loop
vertex 12.53521728515625 1.8913477659225464 3.6792795658111572
vertex 14.316741943359375 1.8913477659225464 3.6792948246002197
vertex 10.3074951171875 1.8966268301010132 10.020296096801758
endloop
endfacet
facet normal 2.9906064291651546e-9 -0.9999996423721313 0.0008325272356159985
outer loop
vertex 9.553085327148438 1.8954232931137085 8.57465648651123
vertex 12.53521728515625 1.8913477659225464 3.6792795658111572
vertex 10.3074951171875 1.8966268301010132 10.020296096801758
endloop
endfacet
facet normal 3.069746057349221e-8 -0.9999996423721313 0.0008325072703883052
outer loop
vertex 6.652801513671875 1.8913477659225464 3.6792795658111572
vertex 9.553085327148438 1.8954232931137085 8.57465648651123
vertex 8.585594177246094 1.8966647386550903 10.06590461730957
endloop
endfacet
facet normal 0 -0.9999996423721313 0.0008325164671987295
outer loop
vertex 5.04034423828125 1.8913477659225464 3.6792795658111572
vertex 6.652801513671875 1.8913477659225464 3.6792795658111572
vertex 8.585594177246094 1.8966647386550903 10.06590461730957
endloop
endfacet
facet normal 3.543827276075717e-8 -0.9999996423721313 0.0008325103553943336
outer loop
vertex 9.553085327148438 1.8954232931137085 8.57465648651123
vertex 10.3074951171875 1.8966268301010132 10.020296096801758
vertex 8.585594177246094 1.8966647386550903 10.06590461730957
endloop
endfacet
facet normal 3.549278559944469e-8 -0.9999996423721313 0.0008325123926624656
outer loop
vertex 8.585594177246094 1.8966647386550903 10.06590461730957
vertex 10.3074951171875 1.8966268301010132 10.020296096801758
vertex 9.535186767578125 1.8977211713790894 11.334833145141602
endloop
endfacet
facet normal -5.719067175391501e-8 -0.9999996423721313 0.0008325422531925142
outer loop
vertex 10.3074951171875 1.8966268301010132 10.020296096801758
vertex 14.100837707519531 1.9015675783157349 15.955085754394531
vertex 12.473899841308594 1.901597023010254 15.990341186523438
endloop
endfacet
facet normal 3.1633941688369305e-8 -0.9999996423721313 0.00083251012256369
outer loop
vertex 9.535186767578125 1.8977211713790894 11.334833145141602
vertex 10.3074951171875 1.8966268301010132 10.020296096801758
vertex 12.473899841308594 1.901597023010254 15.990341186523438
endloop
endfacet
facet normal 6.745826119924914e-9 -0.9999996423721313 0.0008325338130816817
outer loop
vertex 8.585594177246094 1.8966647386550903 10.06590461730957
vertex 9.535186767578125 1.8977211713790894 11.334833145141602
vertex 6.9049072265625 1.901597023010254 15.990341186523438
endloop
endfacet
facet normal 5.313074069590584e-8 -0.9999996423721313 0.0008325469680130482
outer loop
vertex 8.585594177246094 1.8966647386550903 10.06590461730957
vertex 6.9049072265625 1.901597023010254 15.990341186523438
vertex 5.257625579833984 1.9015917778015137 15.984146118164062
endloop
endfacet
facet normal 0 0 1
outer loop
vertex 8.616332054138184 5.519688129425049 18
vertex 6.322190761566162 4.42724084854126 18
vertex 6.322190761566162 4.0070695877075195 18
endloop
endfacet
facet normal 0 0 1
outer loop
vertex 14.112187385559082 4.0070695877075195 18
vertex 8.616332054138184 5.519688129425049 18
vertex 6.322190761566162 4.0070695877075195 18
endloop
endfacet
facet normal 0 0 1
outer loop
vertex 14.112187385559082 5.519688129425049 18
vertex 8.616332054138184 5.519688129425049 18
vertex 14.112187385559082 4.0070695877075195 18
endloop
endfacet
facet normal 0 0 1
outer loop
vertex 11.616364479064941 14.805497169494629 18
vertex 6.406224250793457 16.3181209564209 18
vertex 6.406224250793457 14.805497169494629 18
endloop
endfacet
facet normal 0 0 1
outer loop
vertex 13.927310943603516 16.3181209564209 18
vertex 6.406224250793457 16.3181209564209 18
vertex 11.616364479064941 14.805497169494629 18
endloop
endfacet
facet normal 0 0 1
outer loop
vertex 13.927310943603516 16.3181209564209 18
vertex 11.616364479064941 14.805497169494629 18
vertex 13.927310943603516 15.897944450378418 18
endloop
endfacet
facet normal 0 0 1
outer loop
vertex 11.616364479064941 14.805497169494629 18
vertex 6.322190761566162 4.42724084854126 18
vertex 8.616332054138184 5.519688129425049 18
endloop
endfacet
facet normal 0 0 1
outer loop
vertex 11.616364479064941 14.805497169494629 18
vertex 8.616332054138184 5.519688129425049 18
vertex 13.927310943603516 15.897944450378418 18
endloop
endfacet
facet normal 0.9999986886978149 0.00044339653686620295 -0.0015394624788314104
outer loop
vertex 18.062313079833984 10.450057983398438 9.232792854309082
vertex 18.05451774597168 8.829134941101074 3.702268123626709
vertex 18.053800582885742 10.509726524353027 3.7204604148864746
endloop
endfacet
facet normal 0.9999986886978149 0.00044339679880067706 -0.0015394625952467322
outer loop
vertex 18.062313079833984 10.450057983398438 9.232792854309082
vertex 18.063030242919922 8.7694673538208 9.214600563049316
vertex 18.05451774597168 8.829134941101074 3.702268123626709
endloop
endfacet
facet normal 0.9999986886978149 0.00044340197928249836 -0.001539938966743648
outer loop
vertex 18.064868927001953 9.585990905761719 10.643702507019043
vertex 18.063030242919922 8.7694673538208 9.214600563049316
vertex 18.062313079833984 10.450057983398438 9.232792854309082
endloop
endfacet
facet normal 0.9999986886978149 0.00044308966607786715 -0.0015395695809274912
outer loop
vertex 18.074481964111328 6.46069860458374 15.988387107849121
vertex 18.075220108032227 4.72968864440918 15.969648361206055
vertex 18.063030242919922 8.7694673538208 9.214600563049316
endloop
endfacet
facet normal 0.9999986886978149 0.0004428801476024091 -0.0015396408271044493
outer loop
vertex 18.074481964111328 6.46069860458374 15.988387107849121
vertex 18.063030242919922 8.7694673538208 9.214600563049316
vertex 18.064868927001953 9.585990905761719 10.643702507019043
endloop
endfacet
facet normal 0.9999986886978149 0.0004440928460098803 -0.0015395160298794508
outer loop
vertex 18.071863174438477 12.594854354858398 16.05478858947754
vertex 18.064868927001953 9.585990905761719 10.643702507019043
vertex 18.062313079833984 10.450057983398438 9.232792854309082
endloop
endfacet
facet normal 0.9999986886978149 0.00044308663927949965 -0.0015391994966194034
outer loop
vertex 18.071125030517578 14.3258638381958 16.073528289794922
vertex 18.071863174438477 12.594854354858398 16.05478858947754
vertex 18.062313079833984 10.450057983398438 9.232792854309082
endloop
endfacet
endsolid MESH-MESH-MESH-MESH-MESH-MESH-MESH-MESH-MESH-MESH-MESH-MESH-MESH-MESH-MESH-MESH
